#!OML:ASF F:\VICON\USERDATA\INSTALL\rory3\rory3.ASF
:FULLY-SPECIFIED
:DEGREES
30
root 0.54725 18.0513 -20.0537 3.36804 -10.1495 1.41724
lowerback 14.9453 -1.86666 -1.48215
upperback 1.42542 -2.72145 -0.029904
thorax -6.79459 -1.28552 1.36297
lowerneck -3.82046 3.59335 -0.814386
upperneck -11.9238 4.67751 -1.41138
head -3.14076 2.38962 -0.389308
rclavicle 1.0051e-014 2.15184e-014
rhumerus -56.003 1.91602 -83.7286
rradius 90.8795
rwrist -4.26575
rhand -45.9405 38.247
rfingers 7.12502
rthumb -18.6885 9.1247
lclavicle 1.0051e-014 2.15184e-014
lhumerus -32.0004 -20.3586 92.8236
lradius 109.612
lwrist 28.7249
lhand -38.4412 5.69999
lfingers 7.12502
lthumb -11.4648 35.3665
rfemur -25.7732 2.28552 25.6176
rtibia 20.9745
rfoot 3.76952 4.18927
rtoes 4.21861
lfemur 10.2305 7.68542 -26.4955
ltibia 70.6425
lfoot 30.7634 4.78325
ltoes -6.64024
31
root 0.551329 17.9499 -19.5281 3.14572 -10.466 1.41186
lowerback 15.1813 -1.65578 -1.41474
upperback 1.57671 -2.43154 0.00420148
thorax -6.77353 -1.14709 1.3076
lowerneck -4.26438 3.50991 -0.911523
upperneck -11.4218 4.5776 -1.40175
head -2.89106 2.34112 -0.350236
rclavicle 5.3574e-014 -3.04389e-015
rhumerus -54.521 2.27038 -84.1914
rradius 91.8801
rwrist -4.48675
rhand -45.0785 38.3964
rfingers 7.12502
rthumb -17.8592 9.19646
lclavicle 5.3574e-014 -3.04389e-015
lhumerus -33.0445 -19.9898 93.3067
lradius 108.329
lwrist 29.9441
lhand -38.9065 6.93902
lfingers 7.12502
lthumb -11.9135 36.58
rfemur -25.4127 2.01043 25.8649
rtibia 24.0956
rfoot 0.893892 5.12027
rtoes 8.96987
lfemur 8.24274 9.32643 -25.0514
ltibia 75.9167
lfoot 30.046 4.73836
ltoes -5.62401
32
root 0.546291 17.8223 -19.0232 3.11557 -10.9636 1.38078
lowerback 15.5396 -1.4091 -1.66734
upperback 1.44726 -2.13801 0.243006
thorax -7.10041 -0.988096 1.65856
lowerneck -4.12817 3.49816 -1.39715
upperneck -11.1281 4.57904 -1.30889
head -2.83065 2.35788 -0.237817
rclavicle 1.2921e-015 8.24956e-015
rhumerus -53.1826 3.19302 -84.5572
rradius 92.968
rwrist -4.54144
rhand -43.8966 37.7393
rfingers 7.12502
rthumb -16.7217 8.43949
lclavicle 1.2921e-015 8.24956e-015
lhumerus -34.4426 -19.2163 94.0061
lradius 107.147
lwrist 30.4435
lhand -38.9825 10.202
lfingers 7.12502
lthumb -11.9867 39.8388
rfemur -25.1904 2.66988 25.9892
rtibia 27.6905
rfoot -1.9882 3.84579
rtoes 10.1232
lfemur 5.71178 10.9933 -23.6153
ltibia 81.1986
lfoot 29.4541 4.47712
ltoes -6.01512
33
root 0.539642 17.7663 -18.5017 2.9074 -11.1021 1.25555
lowerback 15.903 -1.35277 -1.61469
upperback 1.57598 -2.04884 0.383916
thorax -7.16311 -0.944235 1.76926
lowerneck -3.99333 3.5543 -1.57341
upperneck -11.2441 4.64602 -1.39844
head -2.89697 2.40194 -0.242486
rclavicle -1.71452e-015 -2.98177e-015
rhumerus -51.2039 4.13275 -85.1899
rradius 93.9174
rwrist -4.51617
rhand -43.4187 36.7915
rfingers 7.12502
rthumb -16.2615 7.45341
lclavicle -1.71452e-015 -2.98177e-015
lhumerus -35.3437 -18.4352 94.1852
lradius 105.942
lwrist 30.5855
lhand -39.0105 12.4695
lfingers 7.12502
lthumb -12.0138 42.1047
rfemur -25.2756 3.34297 26.2032
rtibia 31.338
rfoot -4.56078 2.09714
rtoes 10.5987
lfemur 3.50587 12.2353 -21.9724
ltibia 85.9616
lfoot 28.944 4.66017
ltoes -2.71648
34
root 0.537039 17.6609 -18.0172 2.49619 -11.0505 0.709507
lowerback 16.6006 -1.35857 -1.04601
upperback 1.97505 -1.95131 0.524293
thorax -7.13645 -0.914309 1.58981
lowerneck -3.98357 3.57992 -1.46802
upperneck -11.8445 4.65177 -1.62098
head -3.09602 2.41094 -0.341436
rclavicle 2.07978e-014 1.12313e-014
rhumerus -48.7588 4.94327 -85.9717
rradius 94.9132
rwrist -4.27156
rhand -43.7625 36.5084
rfingers 7.12502
rthumb -16.5926 7.19769
lclavicle 2.07978e-014 1.12313e-014
lhumerus -36.014 -17.7003 94.1663
lradius 105.12
lwrist 30.3556
lhand -38.8337 12.0807
lfingers 7.12502
lthumb -11.8433 41.7258
rfemur -24.8952 4.10363 26.9135
rtibia 34.6132
rfoot -6.63868 -0.631369
rtoes 9.52363
lfemur 1.57805 13.1677 -19.7803
ltibia 90.7291
lfoot 28.0767 4.35004
ltoes 2.48366
35
root 0.536133 17.5558 -17.5468 2.33434 -11.1066 -0.283012
lowerback 17.3774 -1.29157 -0.190232
upperback 2.36071 -1.68579 0.822382
thorax -7.17109 -0.806825 1.37885
lowerneck -4.30786 3.64426 -1.29417
upperneck -12.508 4.70339 -1.93189
head -3.25402 2.44194 -0.475724
rclavicle -1.10574e-014 1.25234e-014
rhumerus -46.1094 5.77838 -86.5403
rradius 95.9487
rwrist -4.08548
rhand -43.6739 36.6292
rfingers 7.12502
rthumb -16.5072 7.31143
lclavicle -1.10574e-014 1.25234e-014
lhumerus -36.9249 -16.7218 94.37
lradius 104.55
lwrist 29.4717
lhand -38.94 10.7225
lfingers 7.12502
lthumb -11.9458 40.3617
rfemur -24.0933 4.84695 28.0583
rtibia 37.291
rfoot -8.87071 -2.91046
rtoes 11.3863
lfemur -0.886972 14.0526 -17.1755
ltibia 95.3444
lfoot 26.6234 2.92359
ltoes 3.70877
36
root 0.543095 17.4633 -17.0737 2.53211 -11.2145 -1.94912
lowerback 17.9397 -1.22286 1.3759
upperback 2.67575 -1.26102 1.27408
thorax -7.17073 -0.637745 0.883402
lowerneck -4.67247 3.66724 -0.962485
upperneck -13.246 4.68555 -2.32125
head -3.42669 2.43384 -0.662872
rclavicle -5.62064e-014 -2.59414e-014
rhumerus -43.3216 6.56935 -86.948
rradius 96.8463
rwrist -3.93935
rhand -43.1719 36.2528
rfingers 7.12502
rthumb -16.0239 6.89549
lclavicle -5.62064e-014 -2.59414e-014
lhumerus -38.2621 -15.609 94.7578
lradius 104.187
lwrist 28.2307
lhand -38.8153 10.2585
lfingers 7.12502
lthumb -11.8255 39.9046
rfemur -22.8538 5.26507 29.797
rtibia 39.0891
rfoot -11.4879 -3.10627
rtoes 14.0078
lfemur -3.75501 14.8935 -14.0124
ltibia 99.6799
lfoot 24.0434 0.80434
ltoes -2.02062
37
root 0.549734 17.3877 -16.5965 3.10516 -11.2257 -4.08617
lowerback 17.9978 -1.27101 3.43877
upperback 3.00171 -0.898281 1.80594
thorax -6.8735 -0.504971 0.193466
lowerneck -5.33786 3.64505 -0.510124
upperneck -13.6695 4.60747 -2.71327
head -3.43355 2.38548 -0.858071
rclavicle -3.70236e-015 -9.93923e-017
rhumerus -40.3506 7.5879 -87.3877
rradius 97.7513
rwrist -3.88603
rhand -43.6196 35.9752
rfingers 7.12502
rthumb -16.455 6.65303
lclavicle -3.70236e-015 -9.93923e-017
lhumerus -39.4912 -14.5582 94.9646
lradius 104.101
lwrist 27.9061
lhand -38.593 11.791
lfingers 7.12502
lthumb -11.6112 41.4493
rfemur -21.7053 5.12464 32.0311
rtibia 40.1289
rfoot -13.141 -4.39933
rtoes 11.3169
lfemur -6.86454 15.624 -10.4297
ltibia 103.544
lfoot 20.8143 -0.801426
ltoes -9.86194
38
root 0.553292 17.3373 -16.1162 3.61611 -11.0028 -5.38579
lowerback 17.8727 -1.32926 4.71345
upperback 3.32842 -0.73741 2.06775
thorax -6.46027 -0.44457 -0.292457
lowerneck -6.05598 3.65026 0.0930657
upperneck -14.0446 4.55262 -3.14145
head -3.41147 2.34023 -1.08951
rclavicle 9.69075e-016 -2.3059e-014
rhumerus -37.1493 8.66727 -87.79
rradius 98.4746
rwrist -3.76361
rhand -44.7659 36.3752
rfingers 7.12502
rthumb -17.5584 7.14806
lclavicle 9.69075e-016 -2.3059e-014
lhumerus -40.446 -13.7713 94.9316
lradius 103.904
lwrist 28.4549
lhand -39.3895 12.3387
lfingers 7.12502
lthumb -12.3792 41.9522
rfemur -20.6934 4.51647 33.3637
rtibia 40.7237
rfoot -14.2804 -5.19001
rtoes 2.2014
lfemur -10.3413 16.0865 -8.16141
ltibia 106.793
lfoot 19.4953 -2.25332
ltoes -8.92067
39
root 0.5517 17.3007 -15.6499 3.58488 -10.4238 -5.54516
lowerback 18.3375 -1.42677 4.85056
upperback 3.49623 -0.811406 2.12096
thorax -6.5335 -0.48187 -0.289486
lowerneck -6.20299 3.61772 0.22895
upperneck -14.5233 4.47657 -3.32348
head -3.54851 2.30327 -1.17941
rclavicle 3.25758e-014 1.98785e-016
rhumerus -34.2716 9.91185 -88.026
rradius 99.0048
rwrist -3.40808
rhand -45.5872 36.4636
rfingers 7.12502
rthumb -18.3486 7.30901
lclavicle 3.25758e-014 1.98785e-016
lhumerus -41.6044 -12.8559 95.0179
lradius 103.72
lwrist 29.5952
lhand -39.6266 12.5148
lfingers 7.12502
lthumb -12.6078 42.1143
rfemur -19.1236 4.19196 33.2847
rtibia 41.0585
rfoot -15.5216 -5.30848
rtoes 1.85952
lfemur -13.9489 15.9052 -7.591
ltibia 109.414
lfoot 18.8206 -2.97944
ltoes -6.36818
40
root 0.548578 17.275 -15.1887 3.45833 -9.5589 -5.2253
lowerback 18.8497 -1.5397 4.53584
upperback 3.24475 -0.970823 2.13182
thorax -7.08359 -0.561496 -0.0458467
lowerneck -4.6448 3.43952 0.139586
upperneck -15.3992 4.21774 -3.32423
head -4.1592 2.19553 -1.22284
rclavicle 1.51076e-014 -6.26172e-015
rhumerus -32.5354 11.2862 -88.2337
rradius 99.6577
rwrist -3.11238
rhand -45.7091 35.5791
rfingers 7.12502
rthumb -18.4659 6.43559
lclavicle 1.51076e-014 -6.26172e-015
lhumerus -43.5882 -11.8593 95.4266
lradius 103.709
lwrist 31.0842
lhand -39.2612 12.6909
lfingers 7.12502
lthumb -12.2555 42.3118
rfemur -17.3765 3.97131 32.7001
rtibia 41.2957
rfoot -16.4911 -5.59087
rtoes 2.05486
lfemur -17.9211 15.171 -8.0082
ltibia 111.499
lfoot 18.6321 -3.31568
ltoes -6.21703
41
root 0.542836 17.2749 -14.7017 3.78919 -9.2053 -5.14992
lowerback 18.754 -1.32882 4.31734
upperback 2.64846 -0.711361 2.1731
thorax -7.6682 -0.442481 0.0669569
lowerneck -2.15262 3.17925 0.478372
upperneck -16.306 3.81646 -3.5818
head -4.97511 2.01113 -1.44749
rclavicle -3.26007e-014 3.20043e-014
rhumerus -31.7416 12.1755 -88.3768
rradius 100.491
rwrist -2.86985
rhand -43.5433 33.3873
rfingers 7.12502
rthumb -16.3816 4.05912
lclavicle -3.26007e-014 3.20043e-014
lhumerus -46.2469 -11.1961 96.025
lradius 103.862
lwrist 32.6842
lhand -39.3398 12.7966
lfingers 7.12502
lthumb -12.3313 42.413
rfemur -16.0368 3.65804 32.4833
rtibia 41.4282
rfoot -16.6448 -6.15736
rtoes -2.62264
lfemur -22.1197 14.8992 -8.41331
ltibia 112.919
lfoot 16.9688 -3.8815
ltoes -6.49127
42
root 0.542738 17.2908 -14.2009 4.31444 -9.60012 -5.24605
lowerback 18.4559 -0.788937 4.09559
upperback 2.26776 -0.0427702 2.23452
thorax -7.89885 -0.119732 0.0929814
lowerneck -1.2605 2.96274 0.928283
upperneck -16.74 3.46271 -4.05169
head -4.71641 1.85994 -1.53166
rclavicle -1.46107e-014 1.03368e-014
rhumerus -30.5702 12.7589 -88.2438
rradius 101.443
rwrist -2.83206
rhand -44.613 38.1034
rfingers 7.12502
rthumb -17.4112 8.86317
lclavicle -1.46107e-014 1.03368e-014
lhumerus -48.1676 -10.9058 96.4986
lradius 103.931
lwrist 34.128
lhand -39.5942 14.1022
lfingers 7.12502
lthumb -12.5766 43.7036
rfemur -14.6383 3.59983 32.3867
rtibia 41.3402
rfoot -16.451 -6.40354
rtoes -8.82648
lfemur -26.0908 15.2782 -8.74752
ltibia 113.69
lfoot 15.7652 -4.60149
ltoes -8.93757
43
root 0.549244 17.3097 -13.7283 4.38189 -9.57837 -5.46639
lowerback 18.8777 -0.462593 4.10761
upperback 2.18429 0.427551 2.3484
thorax -8.20814 0.102295 0.0951157
lowerneck -1.68671 2.77424 1.13415
upperneck -15.751 3.22523 -4.18918
head -4.85294 1.715 -1.75015
rclavicle 1.04362e-015 -8.94531e-015
rhumerus -29.1005 13.4234 -87.9455
rradius 102.653
rwrist -2.72771
rhand -43.9849 37.9871
rfingers 7.12502
rthumb -16.8067 8.69444
lclavicle 1.04362e-015 -8.94531e-015
lhumerus -49.1882 -10.6877 96.7697
lradius 103.686
lwrist 35.0697
lhand -39.6267 15.0925
lfingers 7.12502
lthumb -12.6079 44.692
rfemur -12.7533 3.60728 32.311
rtibia 40.9132
rfoot -16.5017 -5.92493
rtoes -10.3615
lfemur -29.4903 15.0572 -8.7995
ltibia 113.954
lfoot 14.8453 -5.2145
ltoes -9.66362
